<svg width="192" height="18" viewBox="0 0 192 18" fill="none" xmlns="http://www.w3.org/2000/svg">
<path d="M32 17.7568V0.486486H39.5202C40.2953 0.486486 41.0044 0.648648 41.6476 0.972972C42.2907 1.28108 42.8515 1.7027 43.3297 2.23784C43.808 2.75676 44.179 3.34865 44.4429 4.01351C44.7068 4.66216 44.8387 5.32703 44.8387 6.00811C44.8387 6.8027 44.682 7.55676 44.3687 8.27027C44.0718 8.98378 43.6431 9.59189 43.0823 10.0946C42.5381 10.5973 41.895 10.9459 41.1528 11.1405L45.4077 17.7568H42.8844L38.877 11.5541H34.2264V17.7568H32ZM34.2264 9.60811H39.5449C40.1551 9.60811 40.6828 9.44595 41.1281 9.12162C41.5899 8.78108 41.9444 8.33513 42.1918 7.78378C42.4557 7.23243 42.5876 6.64054 42.5876 6.00811C42.5876 5.35946 42.4392 4.76757 42.1423 4.23243C41.8455 3.68108 41.4579 3.24324 40.9797 2.91892C40.5014 2.59459 39.9737 2.43243 39.3965 2.43243H34.2264V9.60811Z" fill="#102032"/>
<path d="M51.9785 18C51.0055 18 50.115 17.8297 49.3069 17.4892C48.5153 17.1324 47.8226 16.6541 47.2289 16.0541C46.6517 15.4378 46.1982 14.7324 45.8684 13.9378C45.5551 13.1432 45.3984 12.3 45.3984 11.4081C45.3984 10.2081 45.6787 9.11351 46.2395 8.12432C46.8002 7.13513 47.5753 6.34054 48.5648 5.74054C49.5708 5.14054 50.7169 4.84054 52.0033 4.84054C53.3061 4.84054 54.4358 5.14865 55.3923 5.76486C56.3653 6.36486 57.1157 7.15946 57.6434 8.14865C58.1876 9.12162 58.4597 10.1757 58.4597 11.3108C58.4597 11.473 58.4515 11.6351 58.435 11.7973C58.435 11.9432 58.4267 12.0568 58.4102 12.1378H47.699C47.7649 12.9649 47.9958 13.7027 48.3916 14.3514C48.8039 14.9838 49.3316 15.4865 49.9748 15.8595C50.618 16.2162 51.3106 16.3946 52.0527 16.3946C52.8443 16.3946 53.5865 16.2 54.2791 15.8108C54.9882 15.4216 55.4747 14.9108 55.7386 14.2784L57.6186 14.7892C57.3383 15.4054 56.9178 15.9568 56.357 16.4432C55.8128 16.9297 55.1614 17.3108 54.4028 17.5865C53.6607 17.8622 52.8526 18 51.9785 18ZM47.6247 10.6541H56.4313C56.3653 9.82703 56.1262 9.0973 55.7139 8.46486C55.3016 7.83243 54.7738 7.33784 54.1307 6.98108C53.4875 6.62432 52.7784 6.44595 52.0033 6.44595C51.2446 6.44595 50.5438 6.62432 49.9006 6.98108C49.2574 7.33784 48.7297 7.83243 48.3174 8.46486C47.9216 9.0973 47.6907 9.82703 47.6247 10.6541Z" fill="#102032"/>
<path d="M59.6427 17.7568V5.05946H61.8196V17.7568H59.6427ZM59.6427 2.67568V0H61.8196V2.67568H59.6427Z" fill="#102032"/>
<path d="M75.313 17.7568H73.1361V10.6541C73.1361 9.30811 72.9217 8.32703 72.493 7.71081C72.0807 7.07838 71.4457 6.76216 70.5882 6.76216C69.9945 6.76216 69.4008 6.90811 68.8071 7.2C68.2299 7.49189 67.7104 7.88919 67.2486 8.39189C66.8034 8.87838 66.4818 9.44595 66.2839 10.0946V17.7568H64.107V5.05946H66.086V7.78378C66.4323 7.18378 66.8776 6.66486 67.4218 6.22703C67.966 5.78919 68.5845 5.44865 69.2771 5.2054C69.9697 4.96216 70.6954 4.84054 71.454 4.84054C72.1961 4.84054 72.8145 4.97838 73.3093 5.25405C73.8205 5.51351 74.2163 5.88649 74.4967 6.37297C74.7935 6.84324 74.9997 7.4027 75.1151 8.05135C75.2471 8.7 75.313 9.40541 75.313 10.1676V17.7568Z" fill="#102032"/>
<path d="M76.4471 14.0838C76.4471 13.273 76.678 12.5757 77.1397 11.9919C77.618 11.3919 78.2694 10.9297 79.094 10.6054C79.9186 10.2811 80.8751 10.1189 81.9635 10.1189C82.5407 10.1189 83.1509 10.1676 83.7941 10.2649C84.4372 10.3459 85.0062 10.4757 85.501 10.6541V9.72973C85.501 8.75676 85.2041 7.99459 84.6104 7.44324C84.0167 6.87568 83.1756 6.59189 82.0872 6.59189C81.3781 6.59189 80.6937 6.72162 80.034 6.98108C79.3908 7.22432 78.7064 7.58108 77.9808 8.05135L77.1892 6.54324C78.0303 5.97568 78.8713 5.55405 79.7124 5.27838C80.5535 4.98649 81.4275 4.84054 82.3346 4.84054C83.9837 4.84054 85.2866 5.29459 86.2431 6.2027C87.1996 7.09459 87.6778 8.34324 87.6778 9.94865V15.3243C87.6778 15.5838 87.7273 15.7784 87.8263 15.9081C87.9417 16.0216 88.1231 16.0865 88.3705 16.1027V17.7568C88.1561 17.7892 87.9664 17.8135 87.8015 17.8297C87.6531 17.8459 87.5294 17.8541 87.4305 17.8541C86.9192 17.8541 86.5317 17.7162 86.2678 17.4405C86.0204 17.1649 85.8803 16.873 85.8473 16.5649L85.7978 15.7622C85.2371 16.4757 84.5032 17.027 83.5962 17.4162C82.6891 17.8054 81.7903 18 80.8998 18C80.0422 18 79.2754 17.8297 78.5992 17.4892C77.9231 17.1324 77.3953 16.6622 77.016 16.0784C76.6367 15.4784 76.4471 14.8135 76.4471 14.0838ZM84.8578 14.9838C85.0557 14.7568 85.2124 14.5297 85.3278 14.3027C85.4432 14.0595 85.501 13.8568 85.501 13.6946V12.1135C84.9897 11.9189 84.4537 11.773 83.893 11.6757C83.3323 11.5622 82.7798 11.5054 82.2356 11.5054C81.1307 11.5054 80.2319 11.7243 79.5392 12.1622C78.8631 12.5838 78.525 13.1676 78.525 13.9135C78.525 14.3189 78.6322 14.7162 78.8466 15.1054C79.0775 15.4784 79.4073 15.7865 79.8361 16.0297C80.2814 16.273 80.8256 16.3946 81.4688 16.3946C82.1449 16.3946 82.7881 16.2649 83.3983 16.0054C84.0085 15.7297 84.495 15.3892 84.8578 14.9838Z" fill="#102032"/>
<path d="M89.9713 0H92.1482V14.473C92.1482 15.1703 92.2471 15.6 92.445 15.7622C92.6429 15.9243 92.882 16.0054 93.1624 16.0054C93.5087 16.0054 93.8385 15.973 94.1519 15.9081C94.4652 15.827 94.7291 15.7459 94.9435 15.6649L95.2898 17.4162C94.927 17.5622 94.4982 17.6838 94.0035 17.7811C93.5087 17.8784 93.0717 17.927 92.6924 17.927C91.8513 17.927 91.1834 17.6919 90.6887 17.2216C90.2104 16.7514 89.9713 16.0946 89.9713 15.2514V0Z" fill="#102032"/>
<path d="M94.922 11.4324C94.922 10.2324 95.1694 9.13784 95.6642 8.14865C96.1754 7.14324 96.868 6.34054 97.7421 5.74054C98.6326 5.14054 99.6469 4.84054 100.785 4.84054C101.824 4.84054 102.756 5.10811 103.58 5.64324C104.405 6.17838 105.048 6.82703 105.51 7.58919V0H107.687V15.3243C107.687 15.5838 107.736 15.7784 107.835 15.9081C107.95 16.0216 108.132 16.0865 108.379 16.1027V17.7568C107.967 17.8216 107.645 17.8541 107.414 17.8541C106.986 17.8541 106.606 17.7081 106.276 17.4162C105.963 17.1243 105.806 16.8 105.806 16.4432V15.373C105.295 16.1838 104.611 16.8243 103.753 17.2946C102.896 17.7649 102.005 18 101.082 18C100.191 18 99.3665 17.8297 98.6079 17.4892C97.8658 17.1324 97.2144 16.6459 96.6536 16.0297C96.1094 15.4135 95.6806 14.7162 95.3673 13.9378C95.0705 13.1432 94.922 12.3081 94.922 11.4324ZM105.51 13.3054V9.65676C105.312 9.1054 104.99 8.61081 104.545 8.17297C104.1 7.71892 103.597 7.36216 103.036 7.1027C102.492 6.82703 101.947 6.68919 101.403 6.68919C100.76 6.68919 100.175 6.82703 99.6469 7.1027C99.1356 7.36216 98.6904 7.71892 98.3111 8.17297C97.9482 8.61081 97.6679 9.11351 97.47 9.68108C97.2721 10.2486 97.1731 10.8405 97.1731 11.4568C97.1731 12.0892 97.2803 12.6892 97.4947 13.2568C97.7256 13.8243 98.0389 14.327 98.4347 14.7649C98.847 15.2027 99.317 15.5432 99.8448 15.7865C100.389 16.0297 100.974 16.1514 101.601 16.1514C101.997 16.1514 102.401 16.0784 102.813 15.9324C103.242 15.7865 103.646 15.5838 104.025 15.3243C104.405 15.0649 104.726 14.7649 104.99 14.4243C105.254 14.0676 105.427 13.6946 105.51 13.3054Z" fill="#102032"/>
<path d="M115.724 18C114.751 18 113.869 17.8297 113.077 17.4892C112.285 17.1324 111.601 16.6541 111.024 16.0541C110.447 15.4378 110.001 14.7324 109.688 13.9378C109.375 13.1432 109.218 12.3081 109.218 11.4324C109.218 10.5405 109.375 9.6973 109.688 8.9027C110.001 8.10811 110.447 7.41081 111.024 6.81081C111.601 6.19459 112.285 5.71622 113.077 5.37568C113.885 5.01892 114.767 4.84054 115.724 4.84054C116.697 4.84054 117.579 5.01892 118.371 5.37568C119.162 5.71622 119.847 6.19459 120.424 6.81081C121.018 7.41081 121.471 8.10811 121.785 8.9027C122.098 9.6973 122.255 10.5405 122.255 11.4324C122.255 12.3081 122.098 13.1432 121.785 13.9378C121.471 14.7324 121.026 15.4378 120.449 16.0541C119.871 16.6541 119.179 17.1324 118.371 17.4892C117.579 17.8297 116.697 18 115.724 18ZM111.444 11.4568C111.444 12.3324 111.634 13.127 112.013 13.8405C112.409 14.5541 112.929 15.1216 113.572 15.5432C114.215 15.9486 114.932 16.1514 115.724 16.1514C116.515 16.1514 117.233 15.9405 117.876 15.5189C118.536 15.0973 119.055 14.5297 119.434 13.8162C119.83 13.0865 120.028 12.2838 120.028 11.4081C120.028 10.5324 119.83 9.73784 119.434 9.02432C119.055 8.31081 118.536 7.74324 117.876 7.32162C117.233 6.9 116.515 6.68919 115.724 6.68919C114.932 6.68919 114.215 6.90811 113.572 7.34594C112.929 7.76757 112.409 8.33514 112.013 9.04865C111.634 9.76216 111.444 10.5649 111.444 11.4568Z" fill="#102032"/>
<path d="M129.022 17.7568V0.486486H140.624V2.43243H131.248V8.1973H139.139V10.0216H131.248V17.7568H129.022Z" fill="#102032"/>
<path d="M146.778 18C145.805 18 144.914 17.8297 144.106 17.4892C143.315 17.1324 142.622 16.6541 142.028 16.0541C141.451 15.4378 140.997 14.7324 140.668 13.9378C140.354 13.1432 140.198 12.3 140.198 11.4081C140.198 10.2081 140.478 9.11351 141.039 8.12432C141.599 7.13513 142.375 6.34054 143.364 5.74054C144.37 5.14054 145.516 4.84054 146.802 4.84054C148.105 4.84054 149.235 5.14865 150.192 5.76486C151.165 6.36486 151.915 7.15946 152.443 8.14865C152.987 9.12162 153.259 10.1757 153.259 11.3108C153.259 11.473 153.251 11.6351 153.234 11.7973C153.234 11.9432 153.226 12.0568 153.209 12.1378H142.498C142.564 12.9649 142.795 13.7027 143.191 14.3514C143.603 14.9838 144.131 15.4865 144.774 15.8595C145.417 16.2162 146.11 16.3946 146.852 16.3946C147.644 16.3946 148.386 16.2 149.078 15.8108C149.787 15.4216 150.274 14.9108 150.538 14.2784L152.418 14.7892C152.138 15.4054 151.717 15.9568 151.156 16.4432C150.612 16.9297 149.961 17.3108 149.202 17.5865C148.46 17.8622 147.652 18 146.778 18ZM142.424 10.6541H151.23C151.165 9.82703 150.925 9.0973 150.513 8.46486C150.101 7.83243 149.573 7.33784 148.93 6.98108C148.287 6.62432 147.578 6.44595 146.802 6.44595C146.044 6.44595 145.343 6.62432 144.7 6.98108C144.057 7.33784 143.529 7.83243 143.117 8.46486C142.721 9.0973 142.49 9.82703 142.424 10.6541Z" fill="#102032"/>
<path d="M161.269 6.93243C160.181 6.94865 159.216 7.22432 158.375 7.75946C157.551 8.27838 156.965 9 156.619 9.92432V17.7568H154.442V5.05946H156.47V8.0027C156.916 7.12703 157.501 6.42162 158.227 5.88649C158.969 5.33513 159.744 5.02703 160.552 4.96216C160.717 4.96216 160.857 4.96216 160.973 4.96216C161.088 4.96216 161.187 4.97027 161.269 4.98649V6.93243Z" fill="#102032"/>
<path d="M169.019 6.93243C167.931 6.94865 166.966 7.22432 166.125 7.75946C165.3 8.27838 164.715 9 164.369 9.92432V17.7568H162.192V5.05946H164.22V8.0027C164.665 7.12703 165.251 6.42162 165.976 5.88649C166.719 5.33513 167.494 5.02703 168.302 4.96216C168.467 4.96216 168.607 4.96216 168.722 4.96216C168.838 4.96216 168.937 4.97027 169.019 4.98649V6.93243Z" fill="#102032"/>
<path d="M168.927 14.0838C168.927 13.273 169.158 12.5757 169.62 11.9919C170.098 11.3919 170.749 10.9297 171.574 10.6054C172.399 10.2811 173.355 10.1189 174.444 10.1189C175.021 10.1189 175.631 10.1676 176.274 10.2649C176.917 10.3459 177.486 10.4757 177.981 10.6541V9.72973C177.981 8.75676 177.684 7.99459 177.091 7.44324C176.497 6.87568 175.656 6.59189 174.567 6.59189C173.858 6.59189 173.174 6.72162 172.514 6.98108C171.871 7.22432 171.187 7.58108 170.461 8.05135L169.669 6.54324C170.51 5.97568 171.351 5.55405 172.193 5.27838C173.034 4.98649 173.908 4.84054 174.815 4.84054C176.464 4.84054 177.767 5.29459 178.723 6.2027C179.68 7.09459 180.158 8.34324 180.158 9.94865V15.3243C180.158 15.5838 180.207 15.7784 180.306 15.9081C180.422 16.0216 180.603 16.0865 180.851 16.1027V17.7568C180.636 17.7892 180.447 17.8135 180.282 17.8297C180.133 17.8459 180.01 17.8541 179.911 17.8541C179.399 17.8541 179.012 17.7162 178.748 17.4405C178.501 17.1649 178.36 16.873 178.327 16.5649L178.278 15.7622C177.717 16.4757 176.983 17.027 176.076 17.4162C175.169 17.8054 174.27 18 173.38 18C172.522 18 171.755 17.8297 171.079 17.4892C170.403 17.1324 169.875 16.6622 169.496 16.0784C169.117 15.4784 168.927 14.8135 168.927 14.0838ZM177.338 14.9838C177.536 14.7568 177.692 14.5297 177.808 14.3027C177.923 14.0595 177.981 13.8568 177.981 13.6946V12.1135C177.47 11.9189 176.934 11.773 176.373 11.6757C175.812 11.5622 175.26 11.5054 174.716 11.5054C173.611 11.5054 172.712 11.7243 172.019 12.1622C171.343 12.5838 171.005 13.1676 171.005 13.9135C171.005 14.3189 171.112 14.7162 171.327 15.1054C171.558 15.4784 171.887 15.7865 172.316 16.0297C172.761 16.273 173.306 16.3946 173.949 16.3946C174.625 16.3946 175.268 16.2649 175.878 16.0054C176.489 15.7297 176.975 15.3892 177.338 14.9838Z" fill="#102032"/>
<path d="M181.388 16.3703L189.526 6.61622H181.61V5.05946H191.975V6.44595L183.886 16.2H192V17.7568H181.388V16.3703Z" fill="#102032"/>
<path d="M0 8.1579L11.1831 1V4.98597L5.16757 8.97193L11.1831 12.7895V17L0 9.98246V8.1579Z" fill="#4387D8"/>
<path d="M24 9.98246L12.8169 17V12.7895L18.8324 8.97193L12.8169 4.98597V1L24 8.1579V9.98246Z" fill="#4387D8"/>
</svg>
